<?xml version="1.0" encoding="UTF-8" standalone="no"?>
<!-- Created with Inkscape (http://www.inkscape.org/) -->

<svg
   width="16.007292mm"
   height="15.443696mm"
   viewBox="0 0 16.007292 15.443696"
   version="1.1"
   id="svg1"
   xml:space="preserve"
   xmlns:inkscape="http://www.inkscape.org/namespaces/inkscape"
   xmlns:sodipodi="http://sodipodi.sourceforge.net/DTD/sodipodi-0.dtd"
   xmlns="http://www.w3.org/2000/svg"
   xmlns:svg="http://www.w3.org/2000/svg"><sodipodi:namedview
     id="namedview1"
     pagecolor="#ffffff"
     bordercolor="#000000"
     borderopacity="0.25"
     inkscape:showpageshadow="2"
     inkscape:pageopacity="0.0"
     inkscape:pagecheckerboard="0"
     inkscape:deskcolor="#d1d1d1"
     inkscape:document-units="mm" /><defs
     id="defs1"><filter
       id="filter0_d_37_4"
       x="-0.14956699"
       y="4.6004601"
       width="60.5"
       height="58.3699"
       filterUnits="userSpaceOnUse"
       color-interpolation-filters="sRGB"><feFlood
         flood-opacity="0"
         result="BackgroundImageFix"
         id="feFlood2" /><feColorMatrix
         in="SourceAlpha"
         type="matrix"
         values="0 0 0 0 0 0 0 0 0 0 0 0 0 0 0 0 0 0 127 0"
         result="hardAlpha"
         id="feColorMatrix2" /><feOffset
         dy="4"
         id="feOffset2" /><feGaussianBlur
         stdDeviation="2"
         id="feGaussianBlur2" /><feComposite
         in2="hardAlpha"
         operator="out"
         id="feComposite2" /><feColorMatrix
         type="matrix"
         values="0 0 0 0 0.257705 0 0 0 0 0.143607 0 0 0 0 0.336393 0 0 0 0.3 0"
         id="feColorMatrix3" /><feBlend
         mode="normal"
         in2="BackgroundImageFix"
         result="effect1_dropShadow_37_4"
         id="feBlend3" /><feBlend
         mode="normal"
         in="SourceGraphic"
         in2="effect1_dropShadow_37_4"
         result="shape"
         id="feBlend4" /></filter></defs><g
     inkscape:label="Layer 1"
     inkscape:groupmode="layer"
     id="layer1"
     transform="translate(-85.239611,-136.68064)"><g
       style="fill:#ffffff;fill-opacity:1"
       id="g1"
       transform="matrix(0.26458333,0,0,0.26458333,85.279188,135.46343)"><path
         d="m 56.3504,7.74088 c -1.1238,1.59462 -2.0506,3.25242 -2.6996,5.05592 -0.1774,0.4931 -0.2587,1.0246 -0.555,1.4689 -0.5615,0.8419 -1.4443,1.24 -2.331,1.6101 -0.2653,0.1108 -0.442,0.2489 -0.5684,0.5006 -0.3713,0.7389 -0.4962,1.5614 -0.8138,2.3206 -0.3455,0.8262 -1.0404,1.1835 -1.7931,1.4962 -0.3026,0.1258 -0.6037,0.2554 -0.9039,0.3868 -0.6646,0.2909 -0.6517,0.949 -0.7871,1.5088 -0.2565,1.0611 -0.8105,1.8951 -1.824,2.3255 -1.652,0.7013 -2.9568,1.9342 -4.4735,2.8397 -0.7452,0.4449 -1.4636,0.9299 -2.0707,1.558 -0.7377,0.7632 -0.7825,1.053 -0.3512,1.9648 1.2943,2.7363 2.4378,5.5398 3.4117,8.3996 0.8974,2.6355 1.9805,5.1869 3.0626,7.7444 0.6013,1.4211 1.2948,2.8051 1.7525,4.2869 0.0445,0.1443 0.0291,0.3002 0.1056,0.4313 0.1043,0.1788 0.1439,0.3695 -0.0459,0.4959 -0.2315,0.154 -0.3972,-0.0032 -0.5653,-0.1672 -0.8561,-0.8353 -1.5297,-1.8222 -2.2811,-2.744 -0.1499,-0.1839 -0.3055,-0.3472 -0.5503,-0.5885 0.1435,0.7347 0.4385,1.3017 0.6428,1.8981 0.4095,1.1953 0.9731,2.3354 1.2742,3.5711 0.0325,0.1336 0.0698,0.264 0.054,0.3927 -0.0187,0.1515 0.1231,0.3709 -0.0987,0.4444 -0.221,0.0732 -0.4414,0.0089 -0.5741,-0.2106 -0.3918,-0.6485 -0.7917,-1.2925 -1.166,-1.951 -0.6596,-1.1605 -1.302,-2.3308 -1.9538,-3.4957 -0.0307,-0.0548 -0.0826,-0.0977 -0.1971,-0.2296 0.0031,0.7061 0.2304,1.2716 0.3353,1.8542 0.1285,0.7137 0.3269,1.4145 0.4749,2.1251 0.0539,0.2589 -0.0092,0.5426 -0.2552,0.6615 -0.2134,0.1032 -0.4289,-0.0685 -0.5598,-0.2374 -0.4909,-0.634 -0.772,-1.3743 -1.0231,-2.1266 -0.1648,-0.4935 -0.3285,-0.9875 -0.4836,-1.4539 -0.1445,-0.0216 -0.1204,0.0465 -0.13,0.0828 -0.0861,0.3229 -0.038,0.7499 -0.5262,0.7845 -0.4761,0.0337 -0.519,-0.3817 -0.6362,-0.691 -0.6584,-1.7387 -0.9627,-3.562 -1.3152,-5.3781 -0.2792,-1.4381 -0.472,-2.904 -1.0158,-4.2802 -0.4895,-1.2386 -1.4344,-2.0111 -2.6538,-2.4565 -1.7639,-0.6443 -3.2753,-1.6911 -4.7451,-2.831 -1.0278,-0.7971 -1.9321,-1.7149 -2.8257,-2.6461 -0.9827,-1.0241 -1.8203,-2.1649 -2.4797,-3.424 -1.03,-1.9668 -2.1612,-3.8706 -3.5815,-5.5808 -0.5414,-0.652 -1.1197,-1.2825 -1.8362,-1.7779 -0.5795,-0.4007 -1.2139,-0.5437 -1.8737,-0.5535 -1.8794,-0.0281 -3.7613,-0.0599 -5.63892,0.0046 -1.77788,0.061 -3.5534,0.1966 -5.38219,0.1906 -0.04806,-0.1094 -0.04806,-0.2188 -0.04806,-0.3691 0.22431,-0.2946 0.5402,-0.3199 0.84148,-0.3631 2.50051,-0.3587 5.01611,-0.5993 7.51699,-0.9538 0.7098,-0.1006 1.41,-0.2643 2.1098,-0.4242 0.5008,-0.1145 0.8335,-0.435 1.1313,-0.8252 0.4588,-0.6012 0.9905,-1.132 1.6264,-1.547 1.9288,-1.2587 4.6288,-1.0023 6.2984,0.602 0.5292,0.5085 1.0531,1.0221 1.4872,1.6221 0.3324,0.4594 0.5243,0.5046 1.0555,0.2974 1.0553,-0.4115 1.8837,-1.164 2.7426,-1.8649 2.1964,-1.7923 4.2767,-3.7228 6.5054,-5.4768 1.2494,-0.9832 2.5853,-1.8467 3.8671,-2.7852 1.2697,-0.92966 2.4768,-1.93302 3.5965,-3.03893 0.4378,-0.43239 0.8738,-0.86498 1.3559,-1.24906 0.1476,-0.11757 0.2882,-0.2435 0.4723,-0.30005 0.204,-0.06268 0.4076,-0.07819 0.5782,0.08065 0.1631,0.15175 0.1258,0.34021 0.0736,0.52589 -0.196,0.69767 -0.5418,1.33196 -0.8958,1.95269 -1.0665,1.87024 -2.2501,3.66721 -3.4632,5.40231 2.0027,-1.5303 4.163,-2.87573 6.5326,-3.86562 0.7734,-0.32307 1.5688,-0.58736 2.3788,-0.79916 1.3059,-0.34145 2.6199,-0.65158 3.9269,-0.9889 0.5984,-0.15447 1.2086,-0.22748 1.8184,-0.29672 0.3428,-0.03892 0.6901,-5.4e-4 0.921,0.38043 0.0226,0.24068 0.0226,0.45003 0.0226,0.70425 z"
         fill="#8e54b6"
         id="path1-7"
         style="fill:#ffffff;fill-opacity:1;filter:url(#filter0_d_37_4)"
         clip-path="url(#clipPath6)" /></g></g></svg>
